<?xml version="1.0" encoding="utf-8"?>
<!-- Generator: Adobe Illustrator 24.0.2, SVG Export Plug-In . SVG Version: 6.00 Build 0)  -->
<svg version="1.1" id="Layer_1" xmlns="http://www.w3.org/2000/svg" xmlns:xlink="http://www.w3.org/1999/xlink" x="0px" y="0px"
	 viewBox="0 0 512 512" style="enable-background:new 0 0 512 512;" xml:space="preserve">
<style type="text/css">
	.st0{fill:#FC0303;}
	.st1{fill:#FFFFFF;}
</style>
<g>
	<path class="st0" d="M262.1,8.7c-138-1.6-249,109.1-252.2,243c-3.4,140.9,110.4,256,248.7,255.5C394.7,508,504.8,398,508.1,264.5
		C511.6,124.1,398.8,10.3,262.1,8.7z M308.5,471.9c-0.6,1.7-2.1,3.1-4.5,3.1h-83c-1.7,0-2.9-0.7-3.7-1.7
		c-73.9-10.9-166.3-81-176.1-196.6C30.8,152.5,123,50,237.9,39c123-11.8,229.3,80.4,238.8,200.5C486.6,363,398.1,452.8,308.5,471.9z
		"/>
	<path class="st1" d="M357.3,235.8c-2.3-2.2-2.4-4.1-1.3-7c5.8-14.5,4.9-29,0-43.5c-1.1-3.3-2.8-4-5.9-3.1
		c-9.5,2.6-17.3,7.9-24,14.8c-4.5,4.7-8.5,9.8-12.7,14.7c-21.8-13.3-81.3-13.3-102.1,0.2c-3.5-4.2-6.8-8.6-10.5-12.6
		c-6.9-7.6-15-13.6-25-16.7c-3.8-1.2-5.9-0.7-7.2,3.7c-4.3,14.7-4.9,29.2,0.4,43.7c0.5,1.2,0.4,3.5-0.4,4.3
		c-11,10.5-15.2,24-17,38.5c-2,16.4-3.2,32.9-0.2,49.3c4.7,25.3,19.4,43.3,42.6,53.7c11.4,5.1,23.8,8,36,11.9
		c-5.1,7.2-7.7,16.1-8.3,25.5c-0.3,3.5-2,4.8-5,5.7c-22.1,6.6-43.8-1.7-56.4-21.4c-3.3-5.1-7.3-10-11.7-14.1
		c-6.7-6.3-15.2-7.9-24.2-7.3c-0.8,0.1-1.6,0.2-2.4,0.5c-0.6,0.3-1.1,0.7-2.2,1.5c1.2,1.5,2,3.2,3.4,4.1
		c12.8,8.4,19.7,21.5,26.2,34.6c11.9,23.9,33.2,35.9,60,32.9c3.6-0.4,7.3-0.9,11.4-1.5V465c0.1,0,0.1,0,0.2,0h82.1
		c0-13.4-0.2-27,0.1-40.4c0.3-13.4-1.6-26.2-9.3-38c6-1.2,11.6-2.2,17.2-3.6c15.4-3.9,29.4-10.5,41.1-21.6
		c13.9-13.3,21-29.9,22.3-48.8c1.2-17.6,0.3-35.3-3.9-52.6C368.4,250.7,364.2,242.4,357.3,235.8z"/>
</g>
</svg>
