<?xml version="1.0" standalone="no"?>
<!DOCTYPE svg PUBLIC "-//W3C//DTD SVG 1.0//EN" "http://www.w3.org/TR/2001/REC-SVG-20010904/DTD/svg10.dtd">
<svg xmlns="http://www.w3.org/2000/svg" xmlns:xlink="http://www.w3.org/1999/xlink" id="body_1" width="40" height="30">

<g transform="matrix(0.05859375 0 0 0.05859375 5.000001 -0)">
	<g>
        <path d="M262.1 8.7C 124.100006 7.1 13.100006 117.799995 9.900009 251.7C 6.500009 392.59998 120.30001 507.7 258.6 507.2C 394.7 508 504.8 398 508.1 264.5C 511.6 124.1 398.8 10.3 262.1 8.7zM308.5 471.9C 307.9 473.6 306.4 475 304 475L304 475L221 475C 219.3 475 218.1 474.3 217.3 473.3C 143.4 462.4 51 392.3 41.199997 276.69998C 30.8 152.5 123 50 237.9 39C 360.9 27.2 467.2 119.4 476.7 239.5C 486.6 363 398.1 452.8 308.5 471.9z" stroke="none" fill="#FF6600" fill-rule="nonzero" />
        <path d="M357.3 235.8C 355 233.6 354.9 231.7 356 228.8C 361.8 214.3 360.9 199.8 356 185.3C 354.9 182 353.2 181.3 350.1 182.2C 340.6 184.8 332.80002 190.09999 326.1 197C 321.6 201.7 317.6 206.8 313.4 211.7C 291.6 198.4 232.09999 198.4 211.29999 211.9C 207.79999 207.7 204.49998 203.29999 200.79999 199.29999C 193.9 191.69998 185.79999 185.69998 175.79999 182.59999C 171.99998 181.4 169.9 181.9 168.59999 186.29999C 164.29999 200.99998 163.7 215.49998 168.99998 229.99998C 169.49998 231.19998 169.39998 233.49998 168.59999 234.29999C 157.59999 244.79999 153.4 258.3 151.59999 272.8C 149.59999 289.19998 148.4 305.69998 151.4 322.09998C 156.09999 347.39996 170.79999 365.39996 194 375.8C 205.4 380.9 217.8 383.8 230 387.69998C 224.9 394.9 222.3 403.8 221.7 413.19998C 221.4 416.69998 219.7 417.99997 216.7 418.9C 194.59999 425.5 172.9 417.19998 160.29999 397.5C 156.99998 392.4 152.99998 387.5 148.59999 383.4C 141.9 377.1 133.4 375.5 124.399994 376.1C 123.59999 376.2 122.799995 376.30002 121.99999 376.6C 121.399994 376.9 120.899994 377.30002 119.799995 378.1C 120.99999 379.6 121.799995 381.30002 123.2 382.2C 136 390.6 142.9 403.7 149.4 416.80002C 161.29999 440.7 182.59999 452.7 209.4 449.7C 213 449.30002 216.7 448.80002 220.79999 448.2L220.79999 448.2L220.79999 465C 220.9 465 220.9 465 220.99998 465L220.99998 465L303.09998 465C 303.09998 451.6 302.89996 438 303.19998 424.6C 303.49997 411.2 301.59998 398.4 293.9 386.6C 299.9 385.4 305.5 384.4 311.1 383C 326.5 379.1 340.5 372.5 352.2 361.4C 366.1 348.1 373.2 331.5 374.5 312.6C 375.7 295 374.8 277.30002 370.6 260C 368.4 250.7 364.2 242.4 357.3 235.8z" stroke="none" fill="#FFFFFF" fill-rule="nonzero" />
	</g>
</g>
</svg>