<?xml version="1.0" encoding="utf-8"?>
<!-- Generator: Adobe Illustrator 24.0.2, SVG Export Plug-In . SVG Version: 6.00 Build 0)  -->
<svg version="1.1" id="Capa_1" xmlns="http://www.w3.org/2000/svg" xmlns:xlink="http://www.w3.org/1999/xlink" x="0px" y="0px"
	 viewBox="0 0 32 32" style="enable-background:new 0 0 32 32;" xml:space="preserve">
<style type="text/css">
	.st0{fill:#FF0000;}
	.st1{fill-rule:evenodd;clip-rule:evenodd;fill:#FFFFFF;}
</style>
<circle class="st0" cx="16" cy="16" r="14"/>
<path class="st1" d="M14.9,6.1C9.9,6.6,6,10.9,6,16c0,5.5,4.5,10,10,10c5.5,0,10-4.5,10-10c0-5.1-3.8-9.3-8.7-9.9
	C17.3,6.1,16,5.9,14.9,6.1L14.9,6.1z M15.3,7.4v3.4c-1,0-1.9-0.1-2.7-0.3c0.1-0.3,0.3-0.6,0.4-0.8C13.7,8.4,14.5,7.7,15.3,7.4
	L15.3,7.4z M16.8,7.5c0.1,0,0.2,0,0.2,0c0.8,0.3,1.5,1,2.1,2.1c0.1,0.3,0.3,0.5,0.4,0.8c-0.8,0.2-1.8,0.3-2.7,0.3L16.8,7.5z M12.4,8
	c-0.2,0.3-0.4,0.6-0.6,0.9c-0.2,0.4-0.4,0.8-0.6,1.2c-0.5-0.1-0.9-0.3-1.3-0.5C10.6,9,11.5,8.4,12.4,8z M20,8.4
	c0.8,0.3,1.5,0.8,2.1,1.3c-0.4,0.2-0.8,0.3-1.2,0.4c-0.2-0.4-0.3-0.8-0.6-1.2C20.2,8.7,20.1,8.6,20,8.4L20,8.4z M9,10.7
	C9,10.8,9,10.6,9,10.7c0.5,0.2,1.1,0.6,1.7,0.8c-0.3,1.1-0.5,2.3-0.6,3.6H7.3C7.5,13.5,8.1,12,9,10.7L9,10.7z M23,10.7
	c0.9,1.3,1.6,2.8,1.7,4.4h-2.8c-0.1-1.3-0.2-2.5-0.6-3.7C21.9,11.3,22.5,11,23,10.7C23,10.7,23,10.8,23,10.7L23,10.7z M19.9,11.8
	c0.3,1,0.5,2.1,0.5,3.3h-3.7v-2.9C17.9,12.2,19,12,19.9,11.8L19.9,11.8z M12.1,11.9c1,0.2,2.1,0.3,3.2,0.4v2.9h-3.7
	C11.7,14,11.9,12.8,12.1,11.9L12.1,11.9z M7.3,16.6h2.9c0.1,1.3,0.3,2.6,0.6,3.7C10.1,20.4,9,21,9,21.1C7.9,19.7,7.4,18.5,7.3,16.6
	L7.3,16.6z M11.6,16.6h3.7v3c-1.1,0-2.2,0.2-3.2,0.4C11.9,18.9,11.7,17.8,11.6,16.6L11.6,16.6z M16.8,16.6h3.7
	c-0.1,1.2-0.2,2.4-0.5,3.4c-1-0.2-2-0.3-3.2-0.4L16.8,16.6z M21.9,16.6h2.8c-0.1,1.7-0.6,3.2-1.6,4.5c-0.5-0.3-1.3-0.6-1.8-0.8
	C21.6,19.2,21.8,17.9,21.9,16.6L21.9,16.6z M15.3,21v3.3c-0.8-0.3-1.6-1-2.3-2.2c-0.1-0.2-0.3-0.5-0.4-0.8
	C13.5,21.2,14.4,21.1,15.3,21L15.3,21z M16.8,21c0.9,0,1.8,0.1,2.7,0.3c-0.1,0.3-0.2,0.5-0.4,0.7c-0.7,1.2-1.5,2-2.3,2.2L16.8,21z
	 M11.3,21.7c0.2,0.4,0.3,0.8,0.5,1.1c0.3,0.5,0.6,0.9,0.9,1.3c-1.1-0.4-2.1-1.1-2.9-1.9C10.2,22,10.7,21.8,11.3,21.7L11.3,21.7z
	 M20.8,21.7c0.5,0.1,0.9,0.3,1.4,0.5c-0.8,0.8-1.7,1.4-2.7,1.9c0.3-0.4,0.6-0.8,0.9-1.3C20.5,22.4,20.7,22.1,20.8,21.7L20.8,21.7z"
	/>
</svg>
